<svg width="123" height="57" viewBox="0 0 123 57" fill="none" xmlns="http://www.w3.org/2000/svg">
<path d="M51.4529 13.6564C51.4529 12.3585 52.5277 11.4561 54.0892 11.4561C55.5898 11.4561 56.543 12.2876 56.5835 13.626H55.2857C55.2552 12.9872 54.799 12.612 54.0689 12.612C53.2679 12.612 52.7507 12.9973 52.7507 13.6158C52.7507 14.1431 53.0347 14.4372 53.6532 14.5791L54.8192 14.8326C56.0867 15.1064 56.7052 15.7553 56.7052 16.8605C56.7052 18.2395 55.6304 19.1318 53.9979 19.1318C52.4161 19.1318 51.3819 18.2902 51.3515 16.9619H52.6493C52.6595 17.5906 53.1665 17.9658 53.9979 17.9658C54.8598 17.9658 55.4073 17.5906 55.4073 16.9721C55.4073 16.4752 55.1538 16.1812 54.5455 16.0494L53.3693 15.7857C52.1119 15.512 51.4529 14.792 51.4529 13.6564ZM59.2583 19H58.0213V11.4561H59.2685V14.64C59.5828 14.1532 60.1709 13.8389 60.8908 13.8389C62.1279 13.8389 62.7768 14.6197 62.7768 15.9175V19H61.5398V16.2116C61.5398 15.37 61.124 14.9644 60.4954 14.9644C59.7146 14.9644 59.2583 15.512 59.2583 16.2623V19ZM64.9352 12.9872C64.5093 12.9872 64.1747 12.6526 64.1747 12.2369C64.1747 11.8211 64.5093 11.4967 64.9352 11.4967C65.3408 11.4967 65.6754 11.8211 65.6754 12.2369C65.6754 12.6526 65.3408 12.9872 64.9352 12.9872ZM64.3167 19V13.991H65.5537V19H64.3167ZM67.1562 21.322V13.991H68.302L68.3831 14.7515C68.6873 14.1735 69.3464 13.8389 70.1069 13.8389C71.5163 13.8389 72.4491 14.863 72.4491 16.4347C72.4491 17.9962 71.5974 19.1318 70.1069 19.1318C69.3566 19.1318 68.7076 18.8378 68.3933 18.3308V21.322H67.1562ZM68.4034 16.4955C68.4034 17.3979 68.9611 18.0165 69.8128 18.0165C70.6848 18.0165 71.202 17.3878 71.202 16.4955C71.202 15.6032 70.6848 14.9644 69.8128 14.9644C68.9611 14.9644 68.4034 15.5931 68.4034 16.4955ZM73.4645 16.4854C73.4645 14.934 74.4886 13.8389 75.969 13.8389C77.3379 13.8389 78.2707 14.5994 78.4025 15.806H77.1655C77.0236 15.2382 76.6078 14.9441 76.0197 14.9441C75.2288 14.9441 74.7016 15.5424 74.7016 16.4854C74.7016 17.4284 75.1883 18.0165 75.9792 18.0165C76.5977 18.0165 77.0337 17.7123 77.1655 17.1647H78.4127C78.2606 18.3308 77.2872 19.1318 75.9792 19.1318C74.4582 19.1318 73.4645 18.0773 73.4645 16.4854ZM80.9051 19H79.6782V11.4561H80.9051V19ZM85.9239 13.991H87.161V19H86.0152L85.9239 18.3308C85.6198 18.8073 84.9708 19.1318 84.3016 19.1318C83.1457 19.1318 82.4663 18.3511 82.4663 17.1242V13.991H83.7034V16.6882C83.7034 17.6413 84.0785 18.0266 84.768 18.0266C85.5488 18.0266 85.9239 17.5703 85.9239 16.6172V13.991ZM90.905 19.1318C89.4144 19.1318 88.3701 18.0469 88.3701 16.4955C88.3701 14.9239 89.3942 13.8389 90.8644 13.8389C92.3651 13.8389 93.3182 14.8427 93.3182 16.4043V16.7794L89.5463 16.7896C89.6375 17.6717 90.1039 18.1179 90.9252 18.1179C91.6046 18.1179 92.0507 17.8542 92.1927 17.3777H93.3385C93.1255 18.4727 92.213 19.1318 90.905 19.1318ZM90.8745 14.8529C90.1445 14.8529 89.6983 15.2483 89.5767 15.9987H92.0913C92.0913 15.3092 91.6147 14.8529 90.8745 14.8529ZM94.2474 17.4791H95.4236C95.4337 17.9151 95.7582 18.1888 96.326 18.1888C96.904 18.1888 97.2183 17.9556 97.2183 17.5906C97.2183 17.3371 97.0865 17.1546 96.6404 17.0532L95.7379 16.8403C94.8355 16.6375 94.3995 16.2116 94.3995 15.4106C94.3995 14.427 95.2309 13.8389 96.3869 13.8389C97.5124 13.8389 98.2728 14.4879 98.283 15.4613H97.1068C97.0966 15.0354 96.8127 14.7616 96.3362 14.7616C95.8495 14.7616 95.5656 14.9847 95.5656 15.3599C95.5656 15.6438 95.7886 15.8263 96.2145 15.9277L97.1169 16.1406C97.9585 16.3333 98.3844 16.7186 98.3844 17.4892C98.3844 18.5032 97.5225 19.1318 96.2855 19.1318C95.0383 19.1318 94.2474 18.4626 94.2474 17.4791Z" fill="#FFEFFA"/>
<mask id="mask0_1334_262" style="mask-type:alpha" maskUnits="userSpaceOnUse" x="48" y="23" width="68" height="26">
<path d="M56.9555 42.7915C51.838 42.7915 48.3581 38.9789 48.3581 33.3496C48.3581 27.7204 51.8892 23.8822 57.0579 23.8822C60.9984 23.8822 64.0945 26.2619 64.8365 29.8953H62.8663C62.0986 27.2598 59.8469 25.6478 56.9811 25.6478C52.9639 25.6478 50.2772 28.7183 50.2772 33.3496C50.2772 37.9554 52.9639 41.0259 56.9811 41.0259C59.8725 41.0259 62.1754 39.4651 62.9686 37.0087H64.9389C64.0945 40.463 60.896 42.7915 56.9555 42.7915ZM70.792 42.8171C68.1565 42.8171 66.5957 41.333 66.5957 39.158C66.5957 36.8807 68.3356 35.4478 71.227 35.2175L75.321 34.8849V34.4755C75.321 32.0447 73.8625 31.277 72.0458 31.277C69.8965 31.277 68.6171 32.2494 68.6171 33.9126H67.0051C67.0051 31.405 69.0521 29.793 72.097 29.793C74.9628 29.793 77.061 31.2259 77.061 34.5011V42.51H75.5769L75.3466 40.3351C74.579 41.8959 72.8902 42.8171 70.792 42.8171ZM71.2014 41.3842C73.8114 41.3842 75.321 39.5674 75.321 36.8807V36.2155L71.662 36.4969C69.3335 36.7016 68.3868 37.7251 68.3868 39.1069C68.3868 40.6165 69.5127 41.3842 71.2014 41.3842ZM86.8217 29.9721V31.5585H85.8494C83.5721 31.5585 82.1136 33.0938 82.1136 35.4478V42.51H80.348V30.1256H82.0112L82.1391 32.0447C82.6253 30.7141 83.9303 29.8441 85.6702 29.8441C86.0541 29.8441 86.3867 29.8697 86.8217 29.9721ZM87.8436 35.9596C87.8436 32.582 90.0185 29.793 93.652 29.793C95.8013 29.793 97.4389 30.7909 98.2322 32.6076L98.4113 30.1256H99.9465V42.1262C99.9465 45.8108 97.5925 48.2161 93.959 48.2161C90.7862 48.2161 88.56 46.4249 88.0739 43.4312H89.8394C90.2232 45.427 91.7585 46.604 93.9846 46.604C96.5178 46.604 98.2066 44.8897 98.2066 42.3053V39.3627C97.3622 41.1027 95.6478 42.1262 93.524 42.1262C89.9929 42.1262 87.8436 39.3371 87.8436 35.9596ZM89.6091 35.934C89.6091 38.4672 91.17 40.5398 93.7799 40.5398C96.4666 40.5398 98.0531 38.5951 98.0531 35.934C98.0531 33.2985 96.5178 31.3538 93.8055 31.3538C91.1444 31.3538 89.6091 33.4264 89.6091 35.934ZM102.505 36.3178C102.505 32.5308 105.166 29.793 108.799 29.793C112.433 29.793 115.094 32.5308 115.094 36.3178C115.094 40.0792 112.433 42.8171 108.799 42.8171C105.166 42.8171 102.505 40.0792 102.505 36.3178ZM104.296 36.2922C104.296 39.2092 106.138 41.2306 108.799 41.2306C111.435 41.2306 113.303 39.2092 113.303 36.2922C113.303 33.4264 111.435 31.3794 108.799 31.3794C106.138 31.3794 104.296 33.4264 104.296 36.2922Z" fill="black"/>
</mask>
<g mask="url(#mask0_1334_262)">
<g filter="url(#filter0_f_1334_262)">
<circle cx="58.5466" cy="27.9277" r="9.03093" fill="url(#paint0_linear_1334_262)"/>
</g>
<g filter="url(#filter1_f_1334_262)">
<circle cx="68.7067" cy="38.0873" r="10.1598" fill="url(#paint1_linear_1334_262)"/>
</g>
<g filter="url(#filter2_f_1334_262)">
<path d="M65.3196 33.9483C65.3196 39.975 60.7709 44.8606 55.1598 44.8606C49.5487 44.8606 45 39.975 45 33.9483C45 27.9215 49.5487 23.0359 55.1598 23.0359C60.7709 23.0359 65.3196 27.9215 65.3196 33.9483Z" fill="url(#paint2_linear_1334_262)"/>
</g>
<g filter="url(#filter3_f_1334_262)">
<circle cx="80.7477" cy="35.8297" r="10.1598" fill="#B956D2"/>
</g>
<g filter="url(#filter4_f_1334_262)">
<ellipse cx="93.9172" cy="38.8399" rx="12.0412" ry="11.2887" fill="url(#paint3_linear_1334_262)"/>
</g>
<g filter="url(#filter5_f_1334_262)">
<circle cx="110.098" cy="32.8194" r="12.4175" fill="url(#paint4_linear_1334_262)"/>
</g>
</g>
<path d="M41 30C41 39.3888 33.3888 47 24 47C14.6112 47 7 39.3888 7 30C7 20.6112 14.6112 13 24 13C33.3888 13 41 20.6112 41 30Z" fill="url(#paint5_linear_1334_262)"/>
<path opacity="0.6" d="M35 43C32.5 41.5 34.1086 27.6667 37.5 20L20 38.5L33.5 44L35 43Z" fill="url(#paint6_linear_1334_262)"/>
<path opacity="0.6" d="M36.9999 19.0001L23.9999 32.0001C23.9999 32.0001 20.3988 24.5003 23.9998 20.0001C27.6011 15.4997 36.9999 19.0001 36.9999 19.0001Z" fill="#3E83E3"/>
<g filter="url(#filter6_d_1334_262)">
<path d="M25.5004 40L9.00038 22C0.5 39 20.5001 55 35.0005 43C33.0008 44.5 27.5004 42 25.5004 40Z" fill="url(#paint7_linear_1334_262)"/>
</g>
<path d="M41 15L24 32L9 22L25.5 40L41 15Z" fill="url(#paint8_linear_1334_262)"/>
<path d="M24.5 36L9 22L25.5 40L41 15L24.5 36Z" fill="#ECD8EB"/>
<path d="M38.2363 14.9371L35.0443 13.007L47.0687 8.0145L43.0884 20.3073L41.0122 17.1996L42.8021 12.7699L38.2363 14.9371Z" fill="url(#paint9_radial_1334_262)"/>
<defs>
<filter id="filter0_f_1334_262" x="46.5053" y="15.8864" width="24.0821" height="24.0824" filterUnits="userSpaceOnUse" color-interpolation-filters="sRGB">
<feFlood flood-opacity="0" result="BackgroundImageFix"/>
<feBlend mode="normal" in="SourceGraphic" in2="BackgroundImageFix" result="shape"/>
<feGaussianBlur stdDeviation="1.50515" result="effect1_foregroundBlur_1334_262"/>
</filter>
<filter id="filter1_f_1334_262" x="55.5366" y="24.9172" width="26.34" height="26.3402" filterUnits="userSpaceOnUse" color-interpolation-filters="sRGB">
<feFlood flood-opacity="0" result="BackgroundImageFix"/>
<feBlend mode="normal" in="SourceGraphic" in2="BackgroundImageFix" result="shape"/>
<feGaussianBlur stdDeviation="1.50515" result="effect1_foregroundBlur_1334_262"/>
</filter>
<filter id="filter2_f_1334_262" x="41.9897" y="20.0256" width="26.34" height="27.8453" filterUnits="userSpaceOnUse" color-interpolation-filters="sRGB">
<feFlood flood-opacity="0" result="BackgroundImageFix"/>
<feBlend mode="normal" in="SourceGraphic" in2="BackgroundImageFix" result="shape"/>
<feGaussianBlur stdDeviation="1.50515" result="effect1_foregroundBlur_1334_262"/>
</filter>
<filter id="filter3_f_1334_262" x="67.5776" y="22.6596" width="26.34" height="26.3402" filterUnits="userSpaceOnUse" color-interpolation-filters="sRGB">
<feFlood flood-opacity="0" result="BackgroundImageFix"/>
<feBlend mode="normal" in="SourceGraphic" in2="BackgroundImageFix" result="shape"/>
<feGaussianBlur stdDeviation="1.50515" result="effect1_foregroundBlur_1334_262"/>
</filter>
<filter id="filter4_f_1334_262" x="78.8657" y="24.541" width="30.1026" height="28.598" filterUnits="userSpaceOnUse" color-interpolation-filters="sRGB">
<feFlood flood-opacity="0" result="BackgroundImageFix"/>
<feBlend mode="normal" in="SourceGraphic" in2="BackgroundImageFix" result="shape"/>
<feGaussianBlur stdDeviation="1.50515" result="effect1_foregroundBlur_1334_262"/>
</filter>
<filter id="filter5_f_1334_262" x="94.6704" y="17.3915" width="30.8556" height="30.8556" filterUnits="userSpaceOnUse" color-interpolation-filters="sRGB">
<feFlood flood-opacity="0" result="BackgroundImageFix"/>
<feBlend mode="normal" in="SourceGraphic" in2="BackgroundImageFix" result="shape"/>
<feGaussianBlur stdDeviation="1.50515" result="effect1_foregroundBlur_1334_262"/>
</filter>
<filter id="filter6_d_1334_262" x="5.96777" y="20" width="32.0322" height="29.1753" filterUnits="userSpaceOnUse" color-interpolation-filters="sRGB">
<feFlood flood-opacity="0" result="BackgroundImageFix"/>
<feColorMatrix in="SourceAlpha" type="matrix" values="0 0 0 0 0 0 0 0 0 0 0 0 0 0 0 0 0 0 127 0" result="hardAlpha"/>
<feOffset dx="1"/>
<feGaussianBlur stdDeviation="1"/>
<feComposite in2="hardAlpha" operator="out"/>
<feColorMatrix type="matrix" values="0 0 0 0 0 0 0 0 0 0 0 0 0 0 0 0 0 0 0.6 0"/>
<feBlend mode="normal" in2="BackgroundImageFix" result="effect1_dropShadow_1334_262"/>
<feBlend mode="normal" in="SourceGraphic" in2="effect1_dropShadow_1334_262" result="shape"/>
</filter>
<linearGradient id="paint0_linear_1334_262" x1="58.5466" y1="18.8967" x2="58.5466" y2="36.9586" gradientUnits="userSpaceOnUse">
<stop stop-color="#EC703D"/>
<stop offset="1" stop-color="#864023"/>
</linearGradient>
<linearGradient id="paint1_linear_1334_262" x1="68.7067" y1="27.9275" x2="68.7067" y2="48.2471" gradientUnits="userSpaceOnUse">
<stop stop-color="#CB66D3"/>
<stop offset="1" stop-color="#F465C1"/>
</linearGradient>
<linearGradient id="paint2_linear_1334_262" x1="56.6649" y1="28.29" x2="47.529" y2="41.4355" gradientUnits="userSpaceOnUse">
<stop stop-color="#FD8756"/>
<stop offset="0.494" stop-color="#E667CD"/>
</linearGradient>
<linearGradient id="paint3_linear_1334_262" x1="93.9172" y1="27.5513" x2="93.9172" y2="50.1286" gradientUnits="userSpaceOnUse">
<stop stop-color="#E760BA"/>
<stop offset="1" stop-color="#DE40A9"/>
</linearGradient>
<linearGradient id="paint4_linear_1334_262" x1="110.474" y1="27.5513" x2="110.098" y2="45.2369" gradientUnits="userSpaceOnUse">
<stop stop-color="#745FBC"/>
<stop offset="1" stop-color="#F467C1"/>
</linearGradient>
<linearGradient id="paint5_linear_1334_262" x1="41" y1="37.5" x2="10.5" y2="19" gradientUnits="userSpaceOnUse">
<stop stop-color="#6C4BCA"/>
<stop offset="1" stop-color="#55BCFF"/>
</linearGradient>
<linearGradient id="paint6_linear_1334_262" x1="29" y1="20" x2="29" y2="43" gradientUnits="userSpaceOnUse">
<stop stop-color="#5549C1"/>
<stop offset="1" stop-color="#893CB0"/>
</linearGradient>
<linearGradient id="paint7_linear_1334_262" x1="31.5" y1="45.5" x2="8" y2="22" gradientUnits="userSpaceOnUse">
<stop stop-color="#FF7CC7"/>
<stop offset="1" stop-color="#6446BB"/>
</linearGradient>
<linearGradient id="paint8_linear_1334_262" x1="24.0725" y1="32.0151" x2="30.4149" y2="42.4622" gradientUnits="userSpaceOnUse">
<stop stop-color="white"/>
<stop offset="1" stop-color="#929292"/>
</linearGradient>
<radialGradient id="paint9_radial_1334_262" cx="0" cy="0" r="1" gradientUnits="userSpaceOnUse" gradientTransform="translate(44.8663 10.61) rotate(112.682) scale(10.4545 10.1639)">
<stop stop-color="#EC6BC7"/>
<stop offset="0.264" stop-color="#A367E5"/>
<stop offset="0.794" stop-color="#5285F4"/>
</radialGradient>
</defs>
</svg>
